<svg width="80" height="32" viewBox="0 0 80 32" fill="none" xmlns="http://www.w3.org/2000/svg">
<path d="M10.2004 1.70398C11.7939 2.91288 12.728 5.00096 12.6181 7.08905C12.5082 9.06723 11.4642 10.9905 9.87066 12.1994C8.33207 13.4083 6.46379 13.9578 4.65045 14.5622C3.71631 14.8919 2.83711 15.1666 1.95792 15.5513C1.73812 15.6612 0.144579 16.2107 0.144579 16.4854C0.144579 16.4854 0.199529 13.2984 0.144579 11.3751C0.0896293 9.28703 -0.295017 7.08905 0.474278 5.05591C1.57327 2.08863 4.98015 0.110444 8.05733 0.659941C8.82662 0.879739 9.59591 1.26439 10.2004 1.70398Z" fill="#FFFFFF"/>
<path d="M2.50739 28.2447C0.913848 27.0358 -0.0202945 24.9477 0.0896048 22.8596C0.199504 20.8814 1.24355 18.9582 2.83709 17.8042C4.37568 16.6503 6.24396 16.0458 8.0573 15.4414C8.99144 15.1666 9.87064 14.8369 10.7498 14.4523C10.9696 14.3424 12.5632 13.7929 12.5632 13.5182C12.5632 13.5182 12.5632 16.7052 12.6181 18.5735C12.6731 20.6616 13.0577 22.8046 12.2884 24.8378C11.1894 27.8051 7.78255 29.7832 4.76032 29.1788C3.88113 29.0689 3.16678 28.7392 2.50739 28.2447Z" fill="#FFFFFF"/>
<path d="M23.2234 13.0786C22.4541 13.0786 21.6848 12.9137 21.0254 12.639C20.366 12.3642 19.7616 11.9246 19.267 11.3751C18.7725 10.8256 18.3878 10.2212 18.0581 9.50683C17.7834 8.79249 17.6185 8.02319 17.6185 7.19895C17.6185 6.37471 17.7834 5.60541 18.0581 4.89107C18.3329 4.17672 18.7725 3.57228 19.267 3.02278C19.7616 2.47328 20.366 2.08864 21.0804 1.81389C21.7398 1.53914 22.4541 1.37429 23.2234 1.37429C24.1026 1.37429 24.8719 1.59409 25.6412 1.97874C26.4105 2.36338 27.0699 2.96783 27.6194 3.73712L26.4105 4.39652C25.9709 3.84702 25.4763 3.46238 24.9268 3.18763C24.3773 2.91288 23.7729 2.74803 23.1684 2.74803C22.564 2.74803 22.0694 2.85793 21.52 3.07773C21.0254 3.29753 20.5309 3.62722 20.1462 4.06682C19.7616 4.50642 19.4319 4.94602 19.2121 5.49551C18.9923 6.04501 18.8824 6.64945 18.8824 7.2539C18.8824 7.85835 18.9923 8.46279 19.2121 9.01229C19.4319 9.56178 19.7616 10.0563 20.1462 10.441C20.5309 10.8806 20.9705 11.1553 21.52 11.4301C22.0145 11.6499 22.564 11.7598 23.1684 11.7598C23.608 11.7598 24.1026 11.7048 24.4872 11.54C24.8719 11.3751 25.3115 11.1553 25.6412 10.8806C26.0258 10.6058 26.3006 10.2761 26.5753 9.89148C26.8501 9.50684 27.0149 9.06724 27.1248 8.62764H24.3224V7.41875H28.7184C28.7184 8.24299 28.5535 8.95734 28.2788 9.67168C28.004 10.386 27.5644 10.9905 27.0699 11.54C26.5753 12.0895 25.9709 12.4741 25.3115 12.8038C24.6521 13.1335 23.9927 13.0786 23.2234 13.0786Z" fill="#FFFFFF"/>
<path d="M30.5866 3.46238C30.3668 3.46238 30.202 3.40743 30.0371 3.24258C29.8723 3.07773 29.8173 2.91288 29.8173 2.69308C29.8173 2.47329 29.8723 2.30844 30.0371 2.14359C30.202 1.97874 30.3668 1.92379 30.5866 1.92379C30.8064 1.92379 30.9713 1.97874 31.1361 2.14359C31.301 2.30844 31.3559 2.47329 31.3559 2.69308C31.3559 2.91288 31.301 3.07773 31.1361 3.24258C30.9713 3.40743 30.8064 3.46238 30.5866 3.46238ZM29.8723 4.78117H31.246V12.9137H29.8723V4.78117Z" fill="#FFFFFF"/>
<path d="M37.0708 12.8588H35.3124L32.3451 4.72622H33.8287L36.1916 11.2652L38.5544 4.72622H40.038L37.0708 12.8588Z" fill="#FFFFFF"/>
<path d="M44.1592 13.0786C43.3899 13.0786 42.7305 12.9137 42.1261 12.4741C41.5216 12.0895 41.0271 11.5949 40.6425 10.9355C40.2578 10.2761 40.093 9.56178 40.093 8.79249C40.093 8.18804 40.2029 7.63855 40.4227 7.144C40.6425 6.64945 40.9172 6.15491 41.3018 5.77026C41.6865 5.38561 42.1261 5.05591 42.6206 4.83612C43.1152 4.61632 43.6097 4.50642 44.2142 4.50642C44.8186 4.50642 45.3681 4.61632 45.9176 4.89106C46.4122 5.16581 46.8518 5.49551 47.2364 5.93511C47.6211 6.3747 47.8958 6.86925 48.0607 7.4737C48.2255 8.02319 48.2805 8.68259 48.2805 9.34198H41.6315C41.6865 9.78158 41.8513 10.2212 42.0711 10.5509C42.2909 10.9355 42.6206 11.2103 43.0053 11.4301C43.3899 11.6499 43.7746 11.7598 44.2142 11.7598C44.7087 11.7598 45.1483 11.6499 45.533 11.3751C45.9176 11.1004 46.2473 10.7707 46.4671 10.3311L47.8409 10.6608C47.5112 11.3751 47.0166 11.9796 46.3572 12.4192C45.6978 12.8588 44.9835 13.0786 44.1592 13.0786ZM41.5216 8.24299H46.7968C46.7419 7.8034 46.632 7.3638 46.3572 6.97915C46.1374 6.5945 45.8077 6.31976 45.4231 6.04501C45.0384 5.82521 44.5988 5.71531 44.1592 5.71531C43.7196 5.71531 43.28 5.82521 42.8954 6.04501C42.5107 6.26481 42.181 6.5945 41.9612 6.9242C41.7414 7.2539 41.5766 7.8034 41.5216 8.24299Z" fill="#FFFFFF"/>
<path d="M26.5204 16.0458V17.4196H22.7288V27.4204H21.4101V17.3646H17.6185V15.9909C17.6185 16.0458 26.5204 16.0458 26.5204 16.0458Z" fill="#FFFFFF"/>
<path d="M28.8283 27.5853C28.059 27.5853 27.3996 27.4204 26.7952 26.9808C26.1907 26.5962 25.6962 26.1016 25.3115 25.4422C24.9269 24.7828 24.762 24.0685 24.762 23.2992C24.762 22.6947 24.8719 22.1453 25.0917 21.6507C25.3115 21.1562 25.5863 20.6616 25.9709 20.277C26.3556 19.8923 26.7952 19.5626 27.2897 19.3428C27.7843 19.123 28.2788 19.0131 28.8832 19.0131C29.6525 19.0131 30.3119 19.178 30.9164 19.6176C31.5208 20.0022 32.0154 20.4968 32.4 21.1562C32.7847 21.8156 32.9495 22.5299 32.9495 23.2992C32.9495 23.9036 32.8396 24.4531 32.6198 24.9477C32.4 25.4422 32.1253 25.9368 31.7406 26.3214C31.356 26.7061 30.9164 27.0358 30.4768 27.2556C29.9273 27.4754 29.4327 27.5853 28.8283 27.5853ZM28.8283 26.2115C29.3228 26.2115 29.8174 26.1016 30.202 25.8269C30.5867 25.5521 30.9164 25.2224 31.1911 24.7828C31.4659 24.3432 31.5208 23.8487 31.5208 23.3541C31.5208 22.8596 31.4109 22.365 31.1362 21.8705C30.9164 21.4309 30.5867 21.1012 30.1471 20.8265C29.7624 20.5517 29.2679 20.4418 28.7733 20.4418C28.2788 20.4418 27.7843 20.5517 27.3996 20.8265C27.015 21.1012 26.6853 21.4309 26.4105 21.8705C26.1907 22.3101 26.0259 22.8046 26.0259 23.3541C26.0259 23.9036 26.1358 24.3982 26.4105 24.8378C26.6853 25.2774 26.96 25.6071 27.3996 25.8818C27.8392 26.1566 28.3338 26.2115 28.8283 26.2115Z" fill="#FFFFFF"/>
<path d="M40.5875 19.2879H41.9612V27.6402C41.9612 28.1897 41.8513 28.6843 41.6315 29.1238C41.4117 29.5634 41.082 30.003 40.6974 30.3327C40.3127 30.6624 39.8731 30.9372 39.3786 31.157C38.884 31.3218 38.3895 31.4317 37.84 31.4317C37.2905 31.4317 36.741 31.3218 36.1915 31.0471C35.642 30.7723 35.2024 30.4426 34.8178 30.058C34.4331 29.6733 34.1584 29.1788 33.9935 28.6293L35.2574 28.0798C35.3673 28.4645 35.5321 28.7942 35.8069 29.0689C36.0816 29.3986 36.4113 29.6184 36.741 29.7832C37.1257 29.9481 37.4554 30.058 37.84 30.058C38.2246 30.058 38.5543 30.003 38.884 29.8931C39.2137 29.7832 39.5434 29.6184 39.7632 29.3986C39.983 29.1788 40.2578 28.9041 40.4226 28.6293C40.5875 28.3546 40.6424 28.0249 40.6424 27.6952V26.1016C40.3677 26.5412 39.983 26.9259 39.5434 27.2556C39.1038 27.5853 38.5543 27.6952 37.9499 27.6952C37.3455 27.6952 36.8509 27.5853 36.3564 27.3655C35.8618 27.1457 35.4222 26.816 35.0376 26.4313C34.6529 26.0467 34.3782 25.6071 34.1584 25.0576C33.9386 24.5081 33.8287 24.0135 33.8287 23.4091C33.8287 22.8046 33.9386 22.2551 34.1584 21.7606C34.3782 21.2661 34.6529 20.7715 35.0376 20.3869C35.4222 20.0022 35.8618 19.6725 36.3564 19.4527C36.8509 19.2329 37.4004 19.123 37.9499 19.123C38.4994 19.123 39.1038 19.2879 39.5434 19.5626C39.983 19.8374 40.3677 20.222 40.6424 20.7166V19.2879H40.5875ZM37.8949 26.2665C38.4444 26.2665 38.884 26.1566 39.2687 25.8818C39.6533 25.6071 39.9281 25.2224 40.1479 24.7828C40.3677 24.3432 40.4776 23.8487 40.4776 23.2992C40.4776 22.7497 40.3677 22.2551 40.1479 21.8155C39.9281 21.376 39.6533 20.9913 39.2687 20.7715C38.884 20.4968 38.4444 20.3869 37.8949 20.3869C37.3455 20.3869 36.9059 20.4968 36.5212 20.7715C36.1366 21.0463 35.7519 21.376 35.5321 21.8155C35.3123 22.2551 35.1475 22.7497 35.1475 23.2992C35.1475 23.8487 35.2574 24.3432 35.5321 24.7828C35.8069 25.2224 36.1366 25.6071 36.5212 25.8269C36.9059 26.0467 37.4004 26.2665 37.8949 26.2665Z" fill="#FFFFFF"/>
<path d="M46.9617 27.5853C46.1924 27.5853 45.533 27.4204 44.9285 26.9808C44.3241 26.5962 43.8295 26.1016 43.4449 25.4422C43.0602 24.7828 42.8954 24.0685 42.8954 23.2992C42.8954 22.6947 43.0053 22.1453 43.2251 21.6507C43.4449 21.1562 43.7196 20.6616 44.1043 20.277C44.4889 19.8923 44.9285 19.5626 45.4231 19.3428C45.9176 19.123 46.4122 19.0131 47.0166 19.0131C47.6211 19.0131 48.1705 19.123 48.72 19.3978C49.2146 19.6176 49.6542 20.0022 50.0388 20.4418C50.4235 20.8814 50.6982 21.376 50.8631 21.9804C51.0279 22.5848 51.0829 23.1893 51.0829 23.8487H44.434C44.4889 24.2883 44.6538 24.7279 44.8736 25.0576C45.0934 25.4422 45.4231 25.717 45.8077 25.9368C46.1924 26.1566 46.577 26.2665 47.0166 26.2665C47.5112 26.2665 47.9508 26.1566 48.3354 25.8818C48.72 25.6071 49.0497 25.2774 49.2695 24.8378L50.6433 25.1675C50.3136 25.8818 49.819 26.4863 49.1596 26.9259C48.5002 27.3655 47.7859 27.5853 46.9617 27.5853ZM44.3241 22.7497H49.5992C49.5443 22.3101 49.4344 21.8705 49.1596 21.4859C48.9398 21.1012 48.6101 20.8265 48.2255 20.5517C47.8409 20.3319 47.4013 20.222 46.9617 20.222C46.5221 20.222 46.0825 20.3319 45.6978 20.5517C45.3132 20.7715 44.9835 21.0463 44.7637 21.4309C44.5439 21.8156 44.379 22.3101 44.3241 22.7497Z" fill="#FFFFFF"/>
<path d="M56.3031 20.6067H54.4348V27.3655H53.0611V20.6067H51.6873V19.2879H53.0611V16.7602H54.4348V19.2879H56.3031V20.6067Z" fill="#FFFFFF"/>
<path d="M64.5455 22.365V27.4204H63.1718V22.6398C63.1718 22.2002 63.0619 21.8705 62.8421 21.5408C62.6223 21.2111 62.3475 20.9363 62.0178 20.7166C61.6881 20.4968 61.3035 20.4418 60.9188 20.4418C60.5342 20.4418 60.1496 20.5517 59.8199 20.7166C59.4902 20.9363 59.2154 21.1561 58.9956 21.5408C58.7758 21.8705 58.6659 22.2551 58.6659 22.6398V27.4204H57.2922V15.2216H58.6659V20.277C58.9407 19.8923 59.3253 19.6176 59.7649 19.3428C60.2045 19.0681 60.699 19.0131 61.1936 19.0131C61.798 19.0131 62.3475 19.178 62.8421 19.4527C63.3366 19.7275 63.7213 20.1671 64.051 20.6616C64.3807 21.1561 64.5455 21.7056 64.5455 22.365Z" fill="#FFFFFF"/>
<path d="M69.546 27.5853C68.7767 27.5853 68.1173 27.4204 67.5128 26.9808C66.9084 26.5962 66.4138 26.1016 66.0292 25.4422C65.6445 24.7828 65.4797 24.0685 65.4797 23.2992C65.4797 22.6947 65.5896 22.1453 65.8094 21.6507C66.0292 21.1562 66.3039 20.6616 66.6886 20.277C67.0732 19.8923 67.5128 19.5626 68.0074 19.3428C68.5019 19.123 69.0514 19.0131 69.6009 19.0131C70.2053 19.0131 70.7548 19.123 71.3043 19.3978C71.7989 19.6176 72.2385 20.0022 72.6231 20.4418C73.0078 20.8814 73.2825 21.376 73.4474 21.9804C73.6122 22.5848 73.6672 23.1893 73.6672 23.8487H67.0183C67.0732 24.2883 67.2381 24.7279 67.4579 25.0576C67.6777 25.4422 68.0074 25.717 68.392 25.9368C68.7767 26.1566 69.1613 26.2665 69.6009 26.2665C70.0954 26.2665 70.535 26.1566 70.9197 25.8818C71.3043 25.6071 71.634 25.2774 71.8538 24.8378L73.2276 25.1675C72.8979 25.8818 72.4033 26.4863 71.7439 26.9259C71.0845 27.3655 70.3152 27.5853 69.546 27.5853ZM66.9084 22.7497H72.1835C72.1286 22.3101 72.0187 21.8705 71.7439 21.4859C71.5241 21.1012 71.1944 20.8265 70.8098 20.5517C70.4251 20.3319 69.9855 20.222 69.546 20.222C69.1064 20.222 68.6668 20.3319 68.2821 20.5517C67.8975 20.7715 67.5678 21.0463 67.348 21.4309C67.0732 21.8705 66.9633 22.3101 66.9084 22.7497Z" fill="#FFFFFF"/>
<path d="M74.6013 27.4204V19.2879H75.9751V20.277C76.2498 19.8923 76.6345 19.6176 77.0741 19.3428C77.5136 19.0681 78.0082 19.0131 78.5027 19.0131C78.8324 19.0131 79.1072 19.0681 79.4369 19.123L78.8874 20.4968C78.6676 20.4418 78.4478 20.3869 78.228 20.3869C77.8433 20.3869 77.4587 20.4968 77.129 20.6616C76.7993 20.8814 76.5246 21.1012 76.3048 21.4859C76.085 21.8156 75.9751 22.2002 75.9751 22.5848V27.3655L74.6013 27.4204Z" fill="#FFFFFF"/>
</svg>
